<svg width="183" height="177" viewBox="0 0 183 177" fill="none" xmlns="http://www.w3.org/2000/svg">
<g id="Group 60">
<path id="Vector" fill-rule="evenodd" clip-rule="evenodd" d="M83.5282 94.1729C78.1211 90.2133 71.7 84.82 71.7 84.82V64.3394L100.544 89.2746C99.209 96.6476 90.7772 99.4808 83.5282 94.1729ZM36.0296 16.005C33.6808 -3.11023 64.4172 -6.93329 64.4172 14.6226C64.4172 36.4857 38.3107 34.523 36.0296 16.005ZM63.0654 43.9782L64.1976 104.413L95.0354 172.682C91.3348 177.017 81.6526 179.185 76.9044 170.6C65.8028 150.546 33.7146 92.0053 33.7146 92.0053L29.7944 64.0663L18.828 67.7187L13.4039 98.1154C13.4039 98.1154 -0.232333 99.8221 0.578744 88.6601C1.44051 77.1568 2.843 55.2596 2.843 55.2596L32.5149 37.2879C52.8256 35.7006 63.1499 44.0465 63.1499 44.0465L63.0654 43.9782ZM29.2706 103.355L41.9099 126.174L16.9523 177C10.8017 177 2.23469 171.095 6.30697 161.179C10.2103 151.723 29.372 103.423 29.372 103.423L29.2706 103.355Z" fill="url(#paint0_linear_379_98)"/>
<path id="Vector 15 (Stroke)" fill-rule="evenodd" clip-rule="evenodd" d="M153 110C155.209 110 157 108.209 157 106L157 46.6569L175.627 65.2843C177.189 66.8464 179.722 66.8464 181.284 65.2843C182.846 63.7222 182.846 61.1895 181.284 59.6274L155.828 34.1716C154.266 32.6095 151.733 32.6095 150.171 34.1716L124.716 59.6274C123.153 61.1895 123.153 63.7222 124.716 65.2843C126.278 66.8464 128.81 66.8464 130.372 65.2843L149 46.6569L149 106C149 108.209 150.791 110 153 110Z" fill="url(#paint1_linear_379_98)"/>
</g>
<defs>
<linearGradient id="paint0_linear_379_98" x1="50.5439" y1="0" x2="50.5439" y2="177" gradientUnits="userSpaceOnUse">
<stop stop-color="white"/>
<stop offset="1" stop-color="#E00501"/>
</linearGradient>
<linearGradient id="paint1_linear_379_98" x1="153" y1="175.5" x2="153" y2="-7" gradientUnits="userSpaceOnUse">
<stop stop-color="#E4201D"/>
<stop offset="0.415" stop-color="#EF7D7B"/>
<stop offset="1" stop-color="white"/>
</linearGradient>
</defs>
</svg>
