<svg width="111" height="166" viewBox="0 0 111 166" fill="none" xmlns="http://www.w3.org/2000/svg">
<g id="Group 42">
<ellipse id="Ellipse 9" cx="55.3957" cy="44.8345" rx="12.5959" ry="12.4844" fill="#E00501"/>
<path id="Union" d="M38.0065 75.3762L30.3862 92.9242C29.4885 94.9297 27.4964 96.2206 25.2992 96.2206H6.46109C3.38299 96.2206 0.887695 93.7253 0.887695 90.6472C0.887695 87.5691 3.38299 85.0738 6.46109 85.0738H21.6877L29.2867 67.5734C31.5129 62.5999 36.4534 59.3985 41.9025 59.3985H69.6688C75.1179 59.3985 80.0584 62.5999 82.2847 67.5734L89.6607 85.0738H104.887C107.965 85.0738 110.461 87.5691 110.461 90.6472C110.461 93.7253 107.965 96.2206 104.887 96.2206H86.0492C83.852 96.2206 81.8599 94.9297 80.9622 92.9242L72.3386 72.637V102.128C72.3386 101.694 72.3386 102.24 72.3386 102.128V158.754C72.3386 162.756 69.0948 166 65.0932 166C61.0917 166 57.8478 162.756 57.8478 158.754V108.371H52.4973V158.754C52.4973 162.756 49.2535 166 45.2519 166C41.2504 166 38.0065 162.756 38.0065 158.754V108.371V75.3762Z" fill="#E00501"/>
<path id="Rectangle 15 (Stroke)" fill-rule="evenodd" clip-rule="evenodd" d="M3.05762 47.4655C3.05762 21.251 26.5041 0 55.4267 0C84.3494 0 107.796 21.251 107.796 47.4655V79.2099C107.796 80.2118 106.9 81.0239 105.794 81.0239C104.689 81.0239 103.793 80.2118 103.793 79.2099V47.4655C103.793 23.2547 82.1387 3.62794 55.4267 3.62794C28.7147 3.62794 7.06035 23.2547 7.06035 47.4655V79.2099C7.06035 80.2118 6.16431 81.0239 5.05898 81.0239C3.95366 81.0239 3.05762 80.2118 3.05762 79.2099V47.4655Z" fill="white"/>
</g>
</svg>
