<svg width="130" height="121" viewBox="0 0 130 121" fill="none" xmlns="http://www.w3.org/2000/svg">
<g id="Group">
<path id="Vector" d="M42.6583 72.805H26.9648C24.5525 72.7987 22.1721 72.253 19.998 71.2079C17.8238 70.1628 15.9109 68.6448 14.3992 66.7649C14.1787 66.5046 13.8708 66.3336 13.5333 66.284C13.1958 66.2343 12.8517 66.3095 12.5656 66.4953C8.40303 69.4311 5.06668 73.3894 2.87793 77.9889C0.689179 82.5884 -0.278199 87.6741 0.0689868 92.7559C0.416173 97.8378 2.06622 102.745 4.86017 107.004C7.65413 111.263 11.4978 114.731 16.021 117.073C20.5441 119.415 25.5943 120.554 30.685 120.378C35.7757 120.202 40.7353 118.718 45.0861 116.069C49.4369 113.42 53.0322 109.696 55.5256 105.254C58.0191 100.812 59.3267 95.8033 59.3225 90.7096C59.3231 83.8771 56.9389 77.2586 52.5813 71.9961C52.4238 71.7844 52.203 71.6284 51.9508 71.5509C51.6987 71.4733 51.4284 71.4781 51.1791 71.5646C48.4068 72.3559 45.5411 72.773 42.6583 72.805Z" fill="white"/>
<path id="Vector_2" d="M37.751 13.4824C37.751 17.0581 39.1714 20.4874 41.6999 23.0159C44.2283 25.5443 47.6576 26.9648 51.2334 26.9648C54.8091 26.9648 58.2384 25.5443 60.7669 23.0159C63.2953 20.4874 64.7158 17.0581 64.7158 13.4824C64.7158 9.90664 63.2953 6.47734 60.7669 3.9489C58.2384 1.42046 54.8091 0 51.2334 0C47.6576 0 44.2283 1.42046 41.6999 3.9489C39.1714 6.47734 37.751 9.90664 37.751 13.4824Z" fill="#E00501"/>
<path id="Vector_3" d="M129.431 21.5716C129.431 19.4262 128.578 17.3686 127.061 15.8515C125.544 14.3345 123.487 13.4822 121.341 13.4822C119.196 13.4822 117.138 14.3345 115.621 15.8515C114.104 17.3686 113.252 19.4262 113.252 21.5716V43.1434C113.252 45.2889 112.399 47.3465 110.882 48.8635C109.365 50.3806 107.308 51.2329 105.162 51.2329H93.136C92.0788 51.2246 91.0473 50.9058 90.1699 50.3161L69.3531 36.5101C67.8769 35.4417 66.0832 34.903 64.2626 34.9813C62.442 35.0596 60.7012 35.7503 59.3222 36.9415L47.8352 46.6488C46.3197 47.9002 44.4073 48.5696 42.4422 48.5364H26.9644C24.819 48.5364 22.7614 49.3887 21.2443 50.9057C19.7273 52.4228 18.875 54.4804 18.875 56.6258C18.875 58.7713 19.7273 60.8288 21.2443 62.3459C22.7614 63.863 24.819 64.7152 26.9644 64.7152H42.6579C48.3416 64.7221 53.8441 62.716 58.1896 59.0526L64.3915 53.9293C64.6227 53.774 64.895 53.691 65.1735 53.691C65.4521 53.691 65.7243 53.774 65.9555 53.9293L78.4132 62.0188C79.1727 62.506 79.7978 63.1761 80.2312 63.9675C80.6646 64.759 80.8925 65.6465 80.894 66.5488V112.389C80.894 114.534 81.7463 116.592 83.2633 118.109C84.7804 119.626 86.838 120.478 88.9834 120.478C91.1289 120.478 93.1864 119.626 94.7035 118.109C96.2206 116.592 97.0728 114.534 97.0728 112.389V68.76C97.0728 68.4024 97.2149 68.0595 97.4677 67.8066C97.7206 67.5538 98.0635 67.4117 98.4211 67.4117H105.162C111.594 67.3975 117.759 64.8361 122.307 60.288C126.855 55.7399 129.416 49.5754 129.431 43.1434V21.5716Z" fill="#E00501"/>
</g>
</svg>
