<svg width="147" height="185" viewBox="0 0 147 185" fill="none" xmlns="http://www.w3.org/2000/svg">
<g id="Group 42">
<g id="Group 61">
<g id="Group 37">
<ellipse id="Ellipse 9" cx="73.3913" cy="14.0075" rx="14.0075" ry="14.0075" fill="#FFFCFC"/>
<path id="Union" d="M59.3844 33.7216C48.21 33.7216 39.1514 42.7802 39.1514 53.9546V101.684C39.1514 105.122 41.9386 107.91 45.3769 107.91C48.8152 107.91 51.6025 105.122 51.6025 101.684V51.4704C51.6025 50.407 52.4646 49.5449 53.5281 49.5449C54.5018 49.5449 55.3223 50.2718 55.4396 51.2384L58.2688 74.5482C58.664 76.9193 58.664 79.3392 58.2688 81.7103C56.2491 93.8285 55.2341 101.114 55.2341 113.399V177.947H55.2393C55.3909 181.695 58.8147 184.691 63.016 184.691C67.2174 184.691 70.6411 181.695 70.7927 177.947H70.798V100.128C70.798 98.6949 71.9593 97.5336 73.392 97.5336C74.8246 97.5336 75.9859 98.6949 75.9859 100.128V177.947H75.9914C76.148 181.695 79.6859 184.691 84.0273 184.691C88.3687 184.691 91.9066 181.695 92.0632 177.947H92.0686V113.399C92.0686 101.114 91.0536 93.8285 89.0339 81.7103C88.6387 79.3392 88.6387 76.9193 89.0339 74.5482L91.8631 51.2384C91.9804 50.2718 92.8009 49.5449 93.7746 49.5449C94.8381 49.5449 95.7002 50.407 95.7002 51.4704V101.684C95.7002 105.122 98.4875 107.91 101.926 107.91C105.364 107.91 108.151 105.122 108.151 101.684V53.9546C108.151 42.7802 99.0927 33.7216 87.9183 33.7216H59.3844Z" fill="url(#paint0_linear_342_622)"/>
</g>
<path id="Vector 21" d="M35.0855 48.9752L39.99 33.4908C0.137004 35.2285 -3.6604 56.1219 2.85554 64.5297C4.48105 49.6759 25.0195 47.971 35.0855 48.9752Z" fill="url(#paint1_linear_342_622)"/>
<path id="Vector 22" d="M105.221 143.773C103.931 141.027 104.683 134.361 105.221 131.372C131.733 133.614 142.238 126.701 144.177 122.964L146.139 122.404L146.699 127.168C146.531 144.152 118.977 145.315 105.221 143.773Z" fill="url(#paint2_linear_342_622)"/>
<path id="Vector 20" d="M0.333008 57.9438C2.36489 73.2881 26.0469 86.9508 74.3918 92.6261C120.437 98.0314 141.584 107.62 146.629 114.626V126.445C146.637 126.549 146.637 126.65 146.629 126.748V126.445C146.304 122.123 132.245 112.452 74.3918 105.938C15.1448 99.2682 0.333008 80.4581 0.333008 71.8868V57.9438Z" fill="white"/>
</g>
</g>
<defs>
<linearGradient id="paint0_linear_342_622" x1="73.7242" y1="33.6629" x2="73.337" y2="184.691" gradientUnits="userSpaceOnUse">
<stop stop-color="#FFFCFC"/>
<stop offset="0.225" stop-color="#F7BBBA"/>
<stop offset="1" stop-color="#E10C08"/>
</linearGradient>
<linearGradient id="paint1_linear_342_622" x1="39.99" y1="49.0103" x2="0.301758" y2="49.0103" gradientUnits="userSpaceOnUse">
<stop stop-color="white"/>
<stop offset="1" stop-color="#E00501"/>
</linearGradient>
<linearGradient id="paint2_linear_342_622" x1="146.699" y1="133.336" x2="104.509" y2="133.336" gradientUnits="userSpaceOnUse">
<stop stop-color="#E00501"/>
<stop offset="1" stop-color="white"/>
</linearGradient>
</defs>
</svg>
